<?xml version="1.0" encoding="UTF-8"?>
<svg xmlns="http://www.w3.org/2000/svg" version="1.1" width="200" height="200" viewBox="0 0 200 200"><rect x="0" y="0" width="200" height="200" fill="#ffffff"/><g transform="scale(9.524)"><g transform="translate(0,0)"><path fill-rule="evenodd" d="M9 0L9 2L8 2L8 3L9 3L9 4L10 4L10 5L11 5L11 6L10 6L10 7L9 7L9 6L8 6L8 8L4 8L4 10L3 10L3 11L2 11L2 10L1 10L1 11L0 11L0 13L1 13L1 11L2 11L2 12L3 12L3 13L8 13L8 17L10 17L10 18L8 18L8 21L9 21L9 20L10 20L10 21L15 21L15 17L14 17L14 16L18 16L18 17L17 17L17 18L16 18L16 21L17 21L17 19L18 19L18 18L20 18L20 19L19 19L19 20L18 20L18 21L19 21L19 20L20 20L20 21L21 21L21 18L20 18L20 17L19 17L19 16L21 16L21 15L19 15L19 16L18 16L18 15L16 15L16 14L20 14L20 13L21 13L21 12L19 12L19 10L21 10L21 9L19 9L19 8L18 8L18 9L17 9L17 10L16 10L16 9L15 9L15 8L12 8L12 7L13 7L13 6L12 6L12 5L11 5L11 4L12 4L12 3L13 3L13 2L12 2L12 1L13 1L13 0L12 0L12 1L10 1L10 0ZM10 2L10 4L11 4L11 3L12 3L12 2ZM11 6L11 7L10 7L10 8L11 8L11 9L10 9L10 10L9 10L9 9L6 9L6 10L4 10L4 11L3 11L3 12L7 12L7 11L8 11L8 12L9 12L9 11L10 11L10 10L11 10L11 9L12 9L12 8L11 8L11 7L12 7L12 6ZM0 8L0 9L3 9L3 8ZM13 9L13 10L12 10L12 11L13 11L13 10L15 10L15 12L14 12L14 13L12 13L12 12L11 12L11 13L9 13L9 14L10 14L10 15L12 15L12 14L13 14L13 16L12 16L12 17L11 17L11 20L12 20L12 17L13 17L13 16L14 16L14 15L15 15L15 14L14 14L14 13L15 13L15 12L16 12L16 13L17 13L17 11L18 11L18 10L19 10L19 9L18 9L18 10L17 10L17 11L16 11L16 10L15 10L15 9ZM6 10L6 11L7 11L7 10ZM18 12L18 13L19 13L19 12ZM11 13L11 14L12 14L12 13ZM13 18L13 20L14 20L14 18ZM0 0L0 7L7 7L7 0ZM1 1L1 6L6 6L6 1ZM2 2L2 5L5 5L5 2ZM14 0L14 7L21 7L21 0ZM15 1L15 6L20 6L20 1ZM16 2L16 5L19 5L19 2ZM0 14L0 21L7 21L7 14ZM1 15L1 20L6 20L6 15ZM2 16L2 19L5 19L5 16Z" fill="#000000"/></g></g></svg>
